<svg width="313" height="139" viewBox="0 0 313 139" fill="none" xmlns="http://www.w3.org/2000/svg">
<path d="M245.936 26.6706C203.008 26.6706 160.08 26.6706 117.152 26.6706C92.4586 26.6706 66.43 25.0331 42.2086 31.0262C30.8436 33.8382 21.8501 38.321 17.5899 49.9663C14.1692 59.317 9.81572 73.8895 14.5845 83.557C23.5365 101.705 50.5969 105.07 67.211 108.898C91.1242 114.409 114.779 117.729 139.277 117.61C176.343 117.429 209.068 108.526 244.018 96.7557C261.645 90.8194 283.736 83.02 292.232 64.2869C297.11 53.5323 302.159 36.9447 289.163 29.9703C265.319 17.1743 233.808 24.0107 208.976 28.9144C169.427 36.7244 126.649 42.03 90.1671 60.8552C80.554 65.8158 66.9116 73.7665 60.8805 83.425C54.6789 93.3566 67.2193 96.4284 75.2041 97.6796C113.643 103.703 154.159 100.319 192.862 100.319C215.859 100.319 241.343 103.564 264.097 98.8675C287.911 93.9521 321.207 72.1981 309.625 42.5091C298.122 13.0202 249.603 20.0439 227.392 23.107C172.046 30.7397 116.566 41.5773 65.6124 65.7388C46.2702 74.9105 24.4609 81.633 6.27174 93.1261C-0.276468 97.2636 -1.2449 102.848 6.33568 106.325C26.3973 115.527 49.0181 120.909 70.0885 126.981C105.97 137.321 145.299 142.397 181.864 133.184C205.844 127.142 230.154 115.745 248.174 97.8116C258.991 87.0471 268.915 74.5756 278.101 62.3071C285.035 53.0449 287.573 41.9891 289.035 30.5642C291.059 14.7514 282.383 9.00998 268.637 4.82679C243.18 -2.92031 211.642 2.20032 186.979 10.3702C148.074 23.2583 110.459 44.5791 77.0585 68.7085C68.1872 75.1173 58.0546 84.4182 56.7241 96.2277C54.492 116.039 87.6659 120.069 100.334 122.559C130.278 128.445 157.54 124.75 186.66 116.224C215.378 107.815 244.098 97.5502 270.555 83.095C282.114 76.7797 296.365 69.9283 304.446 58.8094C306.907 55.4226 308.16 51.5081 310.393 48.0525" stroke="#F4E56B" stroke-width="2" stroke-linecap="round"/>
</svg>
