<svg width="85" height="55" viewBox="0 0 85 55" fill="none" xmlns="http://www.w3.org/2000/svg">
<path d="M52.0176 14.1071C41.8251 8.37172 33.3318 3.63681 21.018 6.96331C10.5982 9.77814 -3.26869 23.2054 7.5742 32.9466C21.8092 45.7353 64.7499 65.587 81.0858 44.2951C90.0109 32.6623 75.355 22.4986 66.903 16.1561C55.2988 7.44813 42.3253 -0.602962 27.1519 1.29219C18.3779 2.38807 11.3518 7.28482 8.86212 16.0144C6.64276 23.7962 21.0946 31.226 26.2388 34.0322C32.596 37.5001 54.8062 36.6619 59.6853 28.7216C68.2683 14.7532 39.7491 0.0638881 28.9821 1.43917C18.8542 2.73281 9.54501 7.22546 3.707 15.7621C-2.95809 25.5082 5.87588 33.258 13.434 38.7453C22.6727 45.4527 40.8353 53.3118 51.07 44.032" stroke="#FF8000" stroke-opacity="0.8" stroke-linecap="round"/>
</svg>
