<?xml version="1.0" encoding="UTF-8"?>
<svg id="Layer_1" data-name="Layer 1" xmlns="http://www.w3.org/2000/svg" viewBox="0 0 198 197.97">
  <defs>
    <style>
      .cls-1 {
        fill: #fff;
      }
    </style>
  </defs>
  <path class="cls-1" d="M173.15,0c13.18,2.87,23.24,12.87,24.82,26.47l.03,144.41c-1.32,14.19-12.4,25.4-26.5,27.08H26.47c-13.44-1.62-23.65-11.74-26.47-24.82V24.83C2.18,13.17,12.79,1.54,24.83,0h148.32ZM50.18,23.71c-14.46,1.49-25.25,12.48-26.57,27.01-2.77,30.4,1.92,64.54-.11,95.34,1.21,16.05,12.37,27.22,28.42,28.42,30.53,2.3,63.92-1.76,94.76-.04,15.74-1.53,26.62-12.64,27.8-28.39-1.94-30.7,2.51-64.42-.04-94.76-1.29-15.34-12.46-26.52-27.77-27.77-30.98,2.12-65.99-2.96-96.5.18Z"/>
  <path class="cls-1" d="M48.41,34.99l99.16-.16c7.56,1.21,14.04,7.65,14.73,15.33,2.76,30.75-2.14,65.57,0,96.75-.7,7.77-7.56,14.66-15.35,15.35-30.75,2.76-65.57-2.14-96.75,0-7.77-.7-14.66-7.56-15.35-15.35l.02-97.38c1.12-7.12,6.64-12.78,13.55-14.54ZM135.96,46.74c-2.13.44-5.82,3.64-6.91,5.5-5.86,10.01,6.48,21.89,16.21,15.55,10.83-7.05,4.45-23.88-9.29-21.05ZM98.57,58.07c-53.34,0-53.33,80.94,0,80.94,53.3,0,53.3-80.94,0-80.94Z"/>
  <path class="cls-1" d="M95.18,70.05c36.14-4.3,45.26,47.92,11.76,56.85-40.89,10.89-51.51-52.12-11.76-56.85Z"/>
</svg>