<svg width="50" height="42" viewBox="0 0 50 42" fill="none" xmlns="http://www.w3.org/2000/svg">
<path d="M43.2133 9.88099C30.9903 10.0367 19.2789 9.0805 12.4345 20.52C8.80173 26.5916 11.945 29.754 17.4862 33.5836C22.2686 36.8889 27.9834 39.7869 33.9469 38.3819C40.1066 36.9306 46.122 29.2279 46.5416 23.0113C47.1212 14.4255 25.102 10.868 19.5782 12.9386C13.2456 15.3125 0.313949 26.1277 0.89894 34.1299C1.74801 45.7444 28.6932 39.4566 34.6425 35.6699C41.4122 31.3611 48.2302 22.9112 48.6201 14.3473C49.1173 3.4252 33.8549 -0.76472 25.6809 1.541C14.8598 4.59342 0.727359 12.4914 3.57353 26.3088C5.84134 37.3185 15.6543 39.627 25.0782 37.8815" stroke="#F4E56B" stroke-linecap="round"/>
</svg>
